<?xml version="1.0" encoding="UTF-8"?>
<svg id="Layer_2" data-name="Layer 2" xmlns="http://www.w3.org/2000/svg" viewBox="0 0 219.23 287.29">
  <defs>
    <style>
      .cls-1 {
        fill: #104d3a;
      }
    </style>
  </defs>
  <g id="Layer_1-2" data-name="Layer 1">
    <path class="cls-1" d="M0,156.05L76.14.66l4.9-.66,137.32,278.45c.95,1.54.91,2.7.84,3.26-.4,2.87-4.12,5.41-9.27,5.58h-76.22c-3.93-8.18,5.98-7.11,11.58-10.57,8.35-5.15,7.48-12.1,4.48-19.93-5.69-14.83-16.33-34.84-23.99-49.26-1.83-3.45-1.85-5.94-6.37-6.2-19.18-1.12-48.48,15.16-56.18,31.63-5.82,12.44-8.83,38.21,6.9,45.28,4.73,2.13,12.75,1.46,8.94,8.69H3.41l-.7-.96c-1.81-6.27,4.56-5.12,8.86-7.65,10.52-6.19,14.19-28.15,18.79-38.82,10.86-25.24,33.93-42.77,61.88-50.36,2.74-.74,21.37-3.97,21.47-5l-50.76-103.16-45.86,99.68c-.75.94-1.5,1.36-2.22,1.45-4.99.62-10.94-14.33-14.87-26.06Z"/>
  </g>
</svg>